<svg width="40" height="41" viewBox="0 0 40 41" fill="none" xmlns="http://www.w3.org/2000/svg">
<g clip-path="url(#clip0_27_105)">
<path fill-rule="evenodd" clip-rule="evenodd" d="M18.6562 0.304932H21.3438C26.0419 0.304932 29.0788 1.05618 31.7175 2.46743C34.3556 3.87868 36.4263 5.94868 37.8375 8.58743C39.2487 11.2262 40 14.2624 40 18.9612V21.6487C40 26.3468 39.2487 29.3837 37.8375 32.0224C36.4263 34.6606 34.3563 36.7312 31.7175 38.1424C29.0788 39.5537 26.0425 40.3049 21.3438 40.3049H18.6562C13.9581 40.3049 10.9213 39.5537 8.2825 38.1424C5.64437 36.7312 3.57375 34.6612 2.1625 32.0224C0.75125 29.3837 0 26.3474 0 21.6487V18.9612C0 14.2631 0.75125 11.2262 2.1625 8.58743C3.57375 5.94931 5.64375 3.87868 8.2825 2.46743C10.9213 1.05618 13.9575 0.304932 18.6562 0.304932Z" fill="#00B600"/>
<path fill-rule="evenodd" clip-rule="evenodd" d="M22.7812 11.5549V20.0912L17.24 11.5549H11.25V28.4737H17.22V19.9374L22.7612 28.4737H28.75V11.5549H22.7812Z" fill="white"/>
</g>
<defs>
<clipPath id="clip0_27_105">
<rect width="40" height="40" fill="white" transform="translate(0 0.304932)"/>
</clipPath>
</defs>
</svg>
