<svg width="40" height="41" viewBox="0 0 40 41" fill="none" xmlns="http://www.w3.org/2000/svg">
<g clip-path="url(#clip0_27_98)">
<path fill-rule="evenodd" clip-rule="evenodd" d="M18.6562 0.304932H21.3438C26.0419 0.304932 29.0788 1.05618 31.7175 2.46743C34.3556 3.87868 36.4263 5.94868 37.8375 8.58743C39.2487 11.2262 40 14.2624 40 18.9612V21.6487C40 26.3468 39.2487 29.3837 37.8375 32.0224C36.4263 34.6606 34.3563 36.7312 31.7175 38.1424C29.0788 39.5537 26.0425 40.3049 21.3438 40.3049H18.6562C13.9581 40.3049 10.9213 39.5537 8.2825 38.1424C5.64437 36.7312 3.57375 34.6612 2.1625 32.0224C0.75125 29.3837 0 26.3474 0 21.6487V18.9612C0 14.2631 0.75125 11.2262 2.1625 8.58743C3.57375 5.94931 5.64375 3.87868 8.2825 2.46743C10.9213 1.05618 13.9575 0.304932 18.6562 0.304932Z" fill="#FFE900"/>
<path fill-rule="evenodd" clip-rule="evenodd" d="M20 9.67993C13.7869 9.67993 8.75 13.7143 8.75 18.6912C8.75 21.9093 10.8563 24.7324 14.0231 26.3268C13.8506 26.9306 12.9156 30.2106 12.8788 30.4687C12.8788 30.4687 12.8563 30.6624 12.9794 30.7362C13.1031 30.8099 13.2481 30.7524 13.2481 30.7524C13.6025 30.7024 17.3525 28.0256 18.0019 27.5612C18.6637 27.656 19.3314 27.7034 20 27.7031C26.2131 27.7031 31.25 23.6681 31.25 18.6912C31.25 13.7143 26.2131 9.67993 20 9.67993Z" fill="black"/>
<path opacity="0.1" d="M18.6563 0.617432H21.3438C26.005 0.617432 28.9875 1.36243 31.57 2.74243C34.1538 4.12493 36.18 6.15118 37.5619 8.73493C38.9437 11.3174 39.6875 14.2999 39.6875 18.9612V21.6487C39.6875 26.3099 38.9425 29.2924 37.5625 31.8749C36.18 34.4587 34.1538 36.4849 31.57 37.8668C28.9875 39.2487 26.005 39.9924 21.3438 39.9924H18.6563C13.995 39.9924 11.0125 39.2474 8.43 37.8674C5.84625 36.4849 3.82 34.4587 2.43813 31.8749C1.05625 29.2924 0.3125 26.3099 0.3125 21.6487V18.9612C0.3125 14.2999 1.0575 11.3174 2.4375 8.73493C3.82 6.15118 5.84625 4.12493 8.43 2.74306C11.0125 1.36118 13.995 0.617432 18.6563 0.617432Z" stroke="#EFEFEF" stroke-width="0.625"/>
</g>
<defs>
<clipPath id="clip0_27_98">
<rect width="40" height="40" fill="white" transform="translate(0 0.304932)"/>
</clipPath>
</defs>
</svg>
