<svg width="44" height="44" viewBox="0 0 44 44" fill="none" xmlns="http://www.w3.org/2000/svg">
<path d="M22 0C9.845 0 0 9.845 0 22C0 34.155 9.845 44 22 44C34.155 44 44 34.155 44 22C44 9.845 34.155 0 22 0ZM22 5.5C23.815 5.5 25.52 5.995 27.17 6.545C26.015 7.645 24.695 8.635 24.915 9.625C25.135 10.615 28.71 10.34 28.71 12.375C28.71 13.86 26.4 14.3 27.995 16.005C29.92 17.93 24.475 21.395 24.365 23.925C24.2 28.49 28.985 29.26 32.78 29.26C35.09 29.26 35.695 30.36 35.53 31.68C32.56 35.915 27.5 38.555 21.945 38.555C19.855 38.555 17.93 38.06 16.115 37.345C17.325 34.925 14.575 30.14 11.99 28.6C10.725 27.335 8.03 27.83 6.49 27.225C5.995 25.74 5.5 24.255 5.445 22.605C5.61 22.33 5.885 22.11 6.325 22.11C7.37 22.11 8.8 24.2 9.57 23.98C10.56 23.76 5.5 16.775 7.865 15.4C8.965 14.74 11.165 17.545 10.45 14.52C9.79 11.715 12.43 12.98 14.08 12.265C15.51 11.66 16.555 10.01 14.795 9.02C14.465 8.855 14.08 8.47 13.585 7.975C16.06 6.49 18.92 5.555 22 5.555V5.5ZM34.705 11.495C35.695 12.705 36.465 14.025 37.125 15.455V15.62C36.905 16.005 36.52 16.225 35.915 16.83C34.375 18.37 34.155 15.675 33.495 15.125C32.78 14.465 30.195 15.235 29.865 14.41C29.48 13.42 32.615 12.1 34.705 11.495Z" fill="white"/>
</svg>
