<svg width="87" height="66" viewBox="0 0 87 66" fill="none" xmlns="http://www.w3.org/2000/svg">
<g filter="url(#filter0_d_46_90)">
<path d="M65.6995 56.794C56.7618 56.8177 38.5013 44.3219 38.4891 39.7604C38.4768 35.1989 56.673 23.7469 65.6107 23.7232C74.5483 23.6995 81.8129 30.8282 81.8366 39.6455C81.8603 48.4629 74.6371 56.7703 65.6995 56.794Z" fill="#629C76"/>
<path d="M21.6293 23.7649C30.5669 23.7371 48.8332 36.2244 48.8476 40.7859C48.8619 45.3474 30.6711 56.8078 21.7334 56.8356C12.7957 56.8635 5.52784 49.7382 5.50008 40.9208C5.47232 32.1035 12.6916 23.7927 21.6293 23.7649Z" fill="#629C76"/>
<path d="M60.6779 18.0584C60.6248 26.9959 47.9727 45.1484 43.4112 45.1215C38.8498 45.0946 27.5545 26.8007 27.6076 17.8632C27.6606 8.92564 34.8514 1.72252 43.6687 1.77457C52.4859 1.82662 60.731 9.12086 60.6779 18.0584Z" fill="#629C76"/>
<path d="M65.6995 56.794C56.7618 56.8177 38.5013 44.3219 38.4891 39.7604C38.4768 35.1989 56.673 23.7469 65.6107 23.7232C74.5483 23.6995 81.8129 30.8282 81.8366 39.6455C81.8603 48.4629 74.6371 56.7703 65.6995 56.794Z" stroke="#629C76" stroke-width="1.613"/>
<path d="M21.6293 23.7649C30.5669 23.7371 48.8332 36.2244 48.8476 40.7859C48.8619 45.3474 30.6711 56.8078 21.7334 56.8356C12.7957 56.8635 5.52784 49.7382 5.50008 40.9208C5.47232 32.1035 12.6916 23.7927 21.6293 23.7649Z" stroke="#629C76" stroke-width="1.613"/>
<path d="M60.6779 18.0584C60.6248 26.9959 47.9727 45.1484 43.4112 45.1215C38.8498 45.0946 27.5545 26.8007 27.6076 17.8632C27.6606 8.92564 34.8514 1.72252 43.6687 1.77457C52.4859 1.82662 60.731 9.12086 60.6779 18.0584Z" stroke="#629C76" stroke-width="1.613"/>
</g>
<defs>
<filter id="filter0_d_46_90" x="0.693481" y="0.967773" width="85.9497" height="64.6744" filterUnits="userSpaceOnUse" color-interpolation-filters="sRGB">
<feFlood flood-opacity="0" result="BackgroundImageFix"/>
<feColorMatrix in="SourceAlpha" type="matrix" values="0 0 0 0 0 0 0 0 0 0 0 0 0 0 0 0 0 0 127 0" result="hardAlpha"/>
<feOffset dy="4"/>
<feGaussianBlur stdDeviation="2"/>
<feComposite in2="hardAlpha" operator="out"/>
<feColorMatrix type="matrix" values="0 0 0 0 0 0 0 0 0 0 0 0 0 0 0 0 0 0 0.25 0"/>
<feBlend mode="normal" in2="BackgroundImageFix" result="effect1_dropShadow_46_90"/>
<feBlend mode="normal" in="SourceGraphic" in2="effect1_dropShadow_46_90" result="shape"/>
</filter>
</defs>
</svg>
