<svg width="44" height="33" viewBox="0 0 44 33" fill="none" xmlns="http://www.w3.org/2000/svg">
<path d="M22.165 0C8.25 0 0 16.5 0 16.5C0 16.5 8.25 33 22.165 33C35.75 33 44 16.5 44 16.5C44 16.5 35.75 0 22.165 0ZM22 5.5C28.105 5.5 33 10.45 33 16.5C33 22.605 28.105 27.5 22 27.5C15.95 27.5 11 22.605 11 16.5C11 10.45 15.95 5.5 22 5.5ZM22 11C18.975 11 16.5 13.475 16.5 16.5C16.5 19.525 18.975 22 22 22C25.025 22 27.5 19.525 27.5 16.5C27.5 15.95 27.28 15.455 27.17 14.96C26.73 15.84 25.85 16.5 24.75 16.5C23.21 16.5 22 15.29 22 13.75C22 12.65 22.66 11.77 23.54 11.33C23.045 11.165 22.55 11 22 11Z" fill="white"/>
</svg>
