<svg width="87" height="66" viewBox="0 0 87 66" fill="none" xmlns="http://www.w3.org/2000/svg">
<g filter="url(#filter0_d_85_21)">
<path d="M65.6995 56.489C56.7618 56.5127 38.5013 44.0169 38.4891 39.4554C38.4768 34.8939 56.673 23.4418 65.6107 23.4182C74.5483 23.3945 81.8129 30.5231 81.8366 39.3405C81.8603 48.1578 74.6371 56.4653 65.6995 56.489Z" fill="#629C76"/>
<path d="M21.6293 23.4598C30.5669 23.432 48.8332 35.9193 48.8476 40.4808C48.8619 45.0423 30.6711 56.5028 21.7334 56.5306C12.7957 56.5584 5.52784 49.4331 5.50008 40.6158C5.47232 31.7984 12.6916 23.4876 21.6293 23.4598Z" fill="#629C76"/>
<path d="M60.6779 17.7534C60.6248 26.6909 47.9727 44.8434 43.4112 44.8164C38.8498 44.7895 27.5545 26.4957 27.6076 17.5581C27.6606 8.62058 34.8514 1.41747 43.6687 1.46952C52.4859 1.52157 60.731 8.81581 60.6779 17.7534Z" fill="#629C76"/>
<path d="M65.6995 56.489C56.7618 56.5127 38.5013 44.0169 38.4891 39.4554C38.4768 34.8939 56.673 23.4418 65.6107 23.4182C74.5483 23.3945 81.8129 30.5231 81.8366 39.3405C81.8603 48.1578 74.6371 56.4653 65.6995 56.489Z" stroke="#629C76" stroke-width="1.613"/>
<path d="M21.6293 23.4598C30.5669 23.432 48.8332 35.9193 48.8476 40.4808C48.8619 45.0423 30.6711 56.5028 21.7334 56.5306C12.7957 56.5584 5.52784 49.4331 5.50008 40.6158C5.47232 31.7984 12.6916 23.4876 21.6293 23.4598Z" stroke="#629C76" stroke-width="1.613"/>
<path d="M60.6779 17.7534C60.6248 26.6909 47.9727 44.8434 43.4112 44.8164C38.8498 44.7895 27.5545 26.4957 27.6076 17.5581C27.6606 8.62058 34.8514 1.41747 43.6687 1.46952C52.4859 1.52157 60.731 8.81581 60.6779 17.7534Z" stroke="#629C76" stroke-width="1.613"/>
</g>
<defs>
<filter id="filter0_d_85_21" x="0.693481" y="0.66272" width="85.9497" height="64.6744" filterUnits="userSpaceOnUse" color-interpolation-filters="sRGB">
<feFlood flood-opacity="0" result="BackgroundImageFix"/>
<feColorMatrix in="SourceAlpha" type="matrix" values="0 0 0 0 0 0 0 0 0 0 0 0 0 0 0 0 0 0 127 0" result="hardAlpha"/>
<feOffset dy="4"/>
<feGaussianBlur stdDeviation="2"/>
<feComposite in2="hardAlpha" operator="out"/>
<feColorMatrix type="matrix" values="0 0 0 0 0 0 0 0 0 0 0 0 0 0 0 0 0 0 0.25 0"/>
<feBlend mode="normal" in2="BackgroundImageFix" result="effect1_dropShadow_85_21"/>
<feBlend mode="normal" in="SourceGraphic" in2="effect1_dropShadow_85_21" result="shape"/>
</filter>
</defs>
</svg>
