<svg width="39" height="45" viewBox="0 0 39 45" fill="none" xmlns="http://www.w3.org/2000/svg">
<path d="M39 36.4286V38.5714H0V36.4286L4.33333 32.1429V19.2857C4.33333 12.6429 8.73167 6.79286 15.1667 4.90714V4.28571C15.1667 3.14907 15.6232 2.05898 16.4359 1.25526C17.2485 0.451529 18.3507 0 19.5 0C20.6493 0 21.7515 0.451529 22.5641 1.25526C23.3768 2.05898 23.8333 3.14907 23.8333 4.28571V4.90714C30.2683 6.79286 34.6667 12.6429 34.6667 19.2857V32.1429L39 36.4286ZM23.8333 40.7143C23.8333 41.8509 23.3768 42.941 22.5641 43.7447C21.7515 44.5485 20.6493 45 19.5 45C18.3507 45 17.2485 44.5485 16.4359 43.7447C15.6232 42.941 15.1667 41.8509 15.1667 40.7143" fill="#F8F8F8"/>
</svg>
