<svg width="148" height="148" viewBox="0 0 148 148" fill="none" xmlns="http://www.w3.org/2000/svg">
<path d="M74 127.28C55.5 127.28 39.146 117.808 29.6 103.6C29.822 88.8 59.2 80.66 74 80.66C88.8 80.66 118.178 88.8 118.4 103.6C113.509 110.886 106.9 116.856 99.1577 120.986C91.4149 125.115 82.7752 127.277 74 127.28ZM74 22.2C79.8878 22.2 85.5345 24.5389 89.6978 28.7022C93.8611 32.8655 96.2 38.5122 96.2 44.4C96.2 50.2878 93.8611 55.9345 89.6978 60.0978C85.5345 64.2611 79.8878 66.6 74 66.6C68.1122 66.6 62.4655 64.2611 58.3022 60.0978C54.1389 55.9345 51.8 50.2878 51.8 44.4C51.8 38.5122 54.1389 32.8655 58.3022 28.7022C62.4655 24.5389 68.1122 22.2 74 22.2ZM74 0C64.2822 0 54.6595 1.91407 45.6814 5.63292C36.7033 9.35176 28.5456 14.8026 21.6741 21.6741C7.79641 35.5518 0 54.374 0 74C0 93.626 7.79641 112.448 21.6741 126.326C28.5456 133.197 36.7033 138.648 45.6814 142.367C54.6595 146.086 64.2822 148 74 148C93.626 148 112.448 140.204 126.326 126.326C140.204 112.448 148 93.626 148 74C148 33.078 114.7 0 74 0Z" fill="#F8F8F8"/>
</svg>
