<svg width="52" height="41" viewBox="0 0 52 41" fill="none" xmlns="http://www.w3.org/2000/svg">
<path d="M47.5815 30.1255L47.5843 28.1255L47.5815 30.1255ZM49.9839 27.6645L47.9839 27.6619L49.9839 27.6645ZM50 15.3432L52 15.3458L50 15.3432ZM47.604 12.8756L47.6068 10.8756L47.604 12.8756ZM4.39598 30.066L4.39322 32.066H4.39323L4.39598 30.066ZM2 27.5984L3.8147e-06 27.5958L2 27.5984ZM2.01609 15.2771L4.01609 15.2797L2.01609 15.2771ZM4.4185 12.8161L4.41575 14.8161H4.41575L4.4185 12.8161ZM2.12628 11.8545C2.12484 12.959 3.0191 13.8556 4.12367 13.8571C5.22824 13.8585 6.12484 12.9643 6.12628 11.8597L2.12628 11.8545ZM6.13915 2.00261C6.14059 0.898043 5.24633 0.0014441 4.14176 1.66893e-06C3.03719 -0.00144053 2.14059 0.89282 2.13915 1.99739L6.13915 2.00261ZM45.3352 11.9187C45.3364 13.0233 46.2328 13.9178 47.3373 13.9166C48.4419 13.9154 49.3364 13.019 49.3352 11.9145L45.3352 11.9187ZM49.3247 2.05736C49.3235 0.952786 48.4271 0.0583131 47.3225 0.0594934C46.218 0.0606736 45.3235 0.95706 45.3247 2.06163L49.3247 2.05736ZM22.3523 26.8877C21.5799 26.0981 20.3136 26.0842 19.5241 26.8566C18.7345 27.629 18.7205 28.8953 19.493 29.6849L22.3523 26.8877ZM31.9453 29.7019C32.7199 28.9144 32.7093 27.6481 31.9218 26.8736C31.1343 26.0991 29.868 26.1096 29.0935 26.8971L31.9453 29.7019ZM14.6583 16.6374C13.8875 17.4285 13.904 18.6947 14.6951 19.4656C15.4863 20.2364 16.7525 20.2199 17.5233 19.4287L14.6583 16.6374ZM18.4885 15.5721L19.9234 14.1788C19.5472 13.7914 19.0303 13.5725 18.4902 13.5721C17.9502 13.5716 17.4329 13.7896 17.056 14.1764L18.4885 15.5721ZM19.4496 19.4329C20.2191 20.2254 21.4853 20.244 22.2778 19.4745C23.0702 18.7051 23.0889 17.4389 22.3194 16.6464L19.4496 19.4329ZM29.0548 16.6558C28.2833 17.4462 28.2985 18.7124 29.0889 19.484C29.8793 20.2556 31.1455 20.2404 31.9171 19.45L29.0548 16.6558ZM32.8884 15.5919L34.3239 14.1994C33.948 13.8119 33.4314 13.5928 32.8916 13.5919C32.3517 13.5911 31.8344 13.8085 31.4573 14.1948L32.8884 15.5919ZM33.8465 19.452C34.6156 20.2449 35.8817 20.2641 36.6746 19.4951C37.4674 18.726 37.4867 17.4598 36.7176 16.667L33.8465 19.452ZM31.9886 2.03592L31.9858 4.03592L33.9863 4.03867L33.9886 2.03815L31.9886 2.03592ZM19.3208 2.01847L19.318 4.01847L19.3208 2.01847ZM7.6439 13.9776L5.6439 13.9746L5.6439 13.9749L7.6439 13.9776ZM7.62691 26.9889L5.62691 26.9863L7.62691 26.9889ZM19.2725 38.9825L19.2698 40.9825L19.2725 38.9825ZM31.9403 39L31.943 37L31.9403 39ZM43.6172 27.0385L45.6172 27.0411L43.6172 27.0385ZM43.6342 14.0271L41.6342 14.0245L43.6342 14.0271ZM31.9886 2.03352L31.9913 0.0335175L29.9908 0.0307616L29.9886 2.03129L31.9886 2.03352ZM43.7892 32.1203L47.5787 32.1255L47.5843 28.1255L43.7947 28.1203L43.7892 32.1203ZM47.5787 32.1255C48.763 32.1271 49.8883 31.6449 50.7101 30.8031L47.8478 28.009C47.7685 28.0902 47.6726 28.1256 47.5843 28.1255L47.5787 32.1255ZM50.7101 30.8031C51.5301 29.9631 51.9824 28.8341 51.9839 27.6671L47.9839 27.6619C47.9837 27.8021 47.9289 27.9259 47.8478 28.009L50.7101 30.8031ZM51.9839 27.6671L52 15.3458L48 15.3405L47.9839 27.6619L51.9839 27.6671ZM52 15.3458C52.0015 14.1788 51.5522 13.0486 50.7344 12.2064L47.8647 14.9929C47.9456 15.0763 48.0002 15.2004 48 15.3405L52 15.3458ZM50.7344 12.2064C49.915 11.3625 48.791 10.8772 47.6068 10.8756L47.6013 14.8756C47.6896 14.8757 47.7855 14.9114 47.8647 14.9929L50.7344 12.2064ZM47.6068 10.8756L43.8149 10.8704L43.8094 14.8704L47.6013 14.8756L47.6068 10.8756ZM8.19063 28.0712L4.39873 28.066L4.39323 32.066L8.18512 32.0712L8.19063 28.0712ZM4.39874 28.066C4.35386 28.0659 4.3081 28.0569 4.26359 28.0379L2.6926 31.7164C3.22993 31.9459 3.80797 32.0652 4.39322 32.066L4.39874 28.066ZM4.26359 28.0379C4.21895 28.0188 4.17487 27.9894 4.13531 27.9486L1.26556 30.7351C1.67097 31.1527 2.15539 31.487 2.6926 31.7164L4.26359 28.0379ZM4.13531 27.9486C4.09564 27.9078 4.06145 27.8564 4.03723 27.7961L0.325565 29.2873C0.541707 29.8253 0.860255 30.3177 1.26556 30.7351L4.13531 27.9486ZM4.03723 27.7961C4.01298 27.7358 3.99991 27.6693 4 27.601L3.8147e-06 27.5958C-0.000752211 28.1747 0.109454 28.7493 0.325565 29.2873L4.03723 27.7961ZM4 27.601L4.01609 15.2797L0.0160931 15.2744L3.8147e-06 27.5958L4 27.601ZM4.01609 15.2797C4.01627 15.1395 4.07114 15.0157 4.15221 14.9326L1.28994 12.1384C0.469934 12.9784 0.017617 14.1075 0.0160931 15.2744L4.01609 15.2797ZM4.15221 14.9326C4.23151 14.8514 4.32742 14.816 4.41575 14.8161L4.42126 10.8161C3.23698 10.8145 2.11172 11.2966 1.28994 12.1384L4.15221 14.9326ZM4.41575 14.8161L8.20765 14.8213L8.21316 10.8213L4.42126 10.8161L4.41575 14.8161ZM6.12628 11.8597L6.13915 2.00261L2.13915 1.99739L2.12628 11.8545L6.12628 11.8597ZM49.3352 11.9145L49.3247 2.05736L45.3247 2.06163L45.3352 11.9187L49.3352 11.9145ZM19.493 29.6849C21.137 31.3655 23.3726 32.3204 25.7156 32.3236L25.7211 28.3236C24.4687 28.3219 23.2567 27.8122 22.3523 26.8877L19.493 29.6849ZM25.7156 32.3236C28.0586 32.3268 30.2968 31.3781 31.9453 29.7019L29.0935 26.8971C28.1868 27.819 26.9735 28.3254 25.7211 28.3236L25.7156 32.3236ZM17.5233 19.4287L19.921 16.9678L17.056 14.1764L14.6583 16.6374L17.5233 19.4287ZM17.0537 16.9653L19.4496 19.4329L22.3194 16.6464L19.9234 14.1788L17.0537 16.9653ZM31.9171 19.45L34.3195 16.989L31.4573 14.1948L29.0548 16.6558L31.9171 19.45ZM31.4528 16.9845L33.8465 19.452L36.7176 16.667L34.3239 14.1994L31.4528 16.9845ZM31.9913 0.0359226L19.3236 0.0184716L19.318 4.01847L31.9858 4.03592L31.9913 0.0359226ZM19.3236 0.0184716C15.6833 0.0134567 12.2013 1.49428 9.64029 4.11718L12.5023 6.91164C14.3208 5.04914 16.7736 4.01496 19.318 4.01847L19.3236 0.0184716ZM9.64029 4.11718C7.08106 6.73826 5.64944 10.285 5.6439 13.9746L9.6439 13.9806C9.6479 11.3177 10.682 8.77595 12.5023 6.91164L9.64029 4.11718ZM5.6439 13.9749L5.62691 26.9863L9.62691 26.9915L9.6439 13.9802L5.6439 13.9749ZM5.62691 26.9863C5.62209 30.6764 7.04412 34.2276 9.59648 36.8563L12.4662 34.0698C10.6506 32.1999 9.62343 29.6548 9.62691 26.9915L5.62691 26.9863ZM9.59648 36.8563C12.1506 39.4867 15.6291 40.9775 19.2698 40.9825L19.2753 36.9825C16.7305 36.979 14.2801 35.9378 12.4662 34.0698L9.59648 36.8563ZM19.2698 40.9825L31.9375 41L31.943 37L19.2753 36.9825L19.2698 40.9825ZM31.9375 41C35.5783 41.005 39.0607 39.5238 41.6218 36.9003L38.7595 34.1061C36.9409 35.969 34.4878 37.0035 31.943 37L31.9375 41ZM41.6218 36.9003C44.1811 34.2786 45.6124 30.7312 45.6172 27.0411L41.6172 27.0359C41.6137 29.6991 40.5799 32.2414 38.7595 34.1061L41.6218 36.9003ZM45.6172 27.0411L45.6342 14.0298L41.6342 14.0245L41.6172 27.0359L45.6172 27.0411ZM45.6342 14.0298C45.639 10.3397 44.217 6.78841 41.6646 4.15978L38.7948 6.94626C40.6104 8.81611 41.6377 11.3613 41.6342 14.0245L45.6342 14.0298ZM41.6646 4.15978C39.1105 1.52932 35.632 0.038533 31.9913 0.0335175L31.9858 4.03351C34.5306 4.03702 36.981 5.07824 38.7948 6.94626L41.6646 4.15978ZM29.9886 2.03129L29.9886 2.03369L33.9886 2.03815L33.9886 2.03574L29.9886 2.03129Z" fill="#F8F8F8"/>
</svg>
