<svg width="57" height="44" viewBox="0 0 57 44" fill="none" xmlns="http://www.w3.org/2000/svg">
<g filter="url(#filter0_d_101_98)">
<path d="M42.0644 34.9743C36.5616 34.9889 25.3187 27.2728 25.3112 24.4561C25.3036 21.6394 36.5069 14.5679 42.0098 14.5533C47.5126 14.5387 51.9854 18.9406 52 24.3852C52.0145 29.8298 47.5673 34.9596 42.0644 34.9743Z" fill="#629C76"/>
<path d="M14.9307 14.579C20.4336 14.5618 31.68 22.2727 31.6888 25.0894C31.6977 27.906 20.4977 34.9828 14.9948 35C9.49194 35.0171 5.01714 30.6173 5.00005 25.1727C4.98296 19.728 9.42784 14.5962 14.9307 14.579Z" fill="#629C76"/>
<path d="M38.9727 11.0553C38.94 16.5742 31.1501 27.7832 28.3417 27.7666C25.5333 27.7499 18.5788 16.4536 18.6115 10.9348C18.6442 5.4159 23.0715 0.968032 28.5002 1.00017C33.9289 1.03231 39.0054 5.53645 38.9727 11.0553Z" fill="#629C76"/>
<path d="M42.0644 34.9743C36.5616 34.9889 25.3187 27.2728 25.3112 24.4561C25.3036 21.6394 36.5069 14.5679 42.0098 14.5533C47.5126 14.5387 51.9854 18.9406 52 24.3852C52.0145 29.8298 47.5673 34.9596 42.0644 34.9743Z" stroke="#629C76" stroke-width="1.613"/>
<path d="M14.9307 14.579C20.4336 14.5618 31.68 22.2727 31.6888 25.0894C31.6977 27.906 20.4977 34.9828 14.9948 35C9.49194 35.0171 5.01714 30.6173 5.00005 25.1727C4.98296 19.728 9.42784 14.5962 14.9307 14.579Z" stroke="#629C76" stroke-width="1.613"/>
<path d="M38.9727 11.0553C38.94 16.5742 31.1501 27.7832 28.3417 27.7666C25.5333 27.7499 18.5788 16.4536 18.6115 10.9348C18.6442 5.4159 23.0715 0.968032 28.5002 1.00017C33.9289 1.03231 39.0054 5.53645 38.9727 11.0553Z" stroke="#629C76" stroke-width="1.613"/>
</g>
<defs>
<filter id="filter0_d_101_98" x="0.193512" y="0.193512" width="56.613" height="43.613" filterUnits="userSpaceOnUse" color-interpolation-filters="sRGB">
<feFlood flood-opacity="0" result="BackgroundImageFix"/>
<feColorMatrix in="SourceAlpha" type="matrix" values="0 0 0 0 0 0 0 0 0 0 0 0 0 0 0 0 0 0 127 0" result="hardAlpha"/>
<feOffset dy="4"/>
<feGaussianBlur stdDeviation="2"/>
<feComposite in2="hardAlpha" operator="out"/>
<feColorMatrix type="matrix" values="0 0 0 0 0 0 0 0 0 0 0 0 0 0 0 0 0 0 0.25 0"/>
<feBlend mode="normal" in2="BackgroundImageFix" result="effect1_dropShadow_101_98"/>
<feBlend mode="normal" in="SourceGraphic" in2="effect1_dropShadow_101_98" result="shape"/>
</filter>
</defs>
</svg>
